<mxfile host="app.diagrams.net" agent="Mozilla/5.0 (Windows NT 10.0; Win64; x64) AppleWebKit/537.36 (KHTML, like Gecko) Chrome/132.0.0.0 Safari/537.36 Edg/132.0.0.0" version="25.0.3">
  <diagram name="第 1 页" id="yiz-KEvQHEa14eyGnv7D">
    <mxGraphModel dx="1211" dy="682" grid="1" gridSize="10" guides="1" tooltips="1" connect="1" arrows="1" fold="1" page="1" pageScale="1" pageWidth="827" pageHeight="1169" math="0" shadow="0">
      <root>
        <mxCell id="0" />
        <mxCell id="1" parent="0" />
        <mxCell id="lol_D_DTWbLAdcMGgxtA-11" value="" style="edgeStyle=none;curved=1;rounded=0;orthogonalLoop=1;jettySize=auto;html=1;fontSize=12;startSize=8;endSize=8;" edge="1" parent="1" source="lol_D_DTWbLAdcMGgxtA-1" target="lol_D_DTWbLAdcMGgxtA-5">
          <mxGeometry relative="1" as="geometry" />
        </mxCell>
        <mxCell id="lol_D_DTWbLAdcMGgxtA-15" style="edgeStyle=none;curved=1;rounded=0;orthogonalLoop=1;jettySize=auto;html=1;exitX=0.5;exitY=1;exitDx=0;exitDy=0;entryX=0.5;entryY=0;entryDx=0;entryDy=0;fontSize=12;startSize=8;endSize=8;" edge="1" parent="1" source="lol_D_DTWbLAdcMGgxtA-1" target="lol_D_DTWbLAdcMGgxtA-2">
          <mxGeometry relative="1" as="geometry" />
        </mxCell>
        <mxCell id="lol_D_DTWbLAdcMGgxtA-16" style="edgeStyle=none;curved=1;rounded=0;orthogonalLoop=1;jettySize=auto;html=1;exitX=0.5;exitY=1;exitDx=0;exitDy=0;entryX=0.5;entryY=0;entryDx=0;entryDy=0;fontSize=12;startSize=8;endSize=8;" edge="1" parent="1" source="lol_D_DTWbLAdcMGgxtA-1" target="lol_D_DTWbLAdcMGgxtA-4">
          <mxGeometry relative="1" as="geometry" />
        </mxCell>
        <mxCell id="lol_D_DTWbLAdcMGgxtA-1" value="车辆租聘管理系统" style="rounded=1;whiteSpace=wrap;html=1;" vertex="1" parent="1">
          <mxGeometry x="352" y="90" width="120" height="60" as="geometry" />
        </mxCell>
        <mxCell id="lol_D_DTWbLAdcMGgxtA-17" style="edgeStyle=none;curved=1;rounded=0;orthogonalLoop=1;jettySize=auto;html=1;exitX=0.5;exitY=1;exitDx=0;exitDy=0;entryX=0.5;entryY=0;entryDx=0;entryDy=0;fontSize=12;startSize=8;endSize=8;" edge="1" parent="1" source="lol_D_DTWbLAdcMGgxtA-2" target="lol_D_DTWbLAdcMGgxtA-3">
          <mxGeometry relative="1" as="geometry" />
        </mxCell>
        <mxCell id="lol_D_DTWbLAdcMGgxtA-18" style="edgeStyle=none;curved=1;rounded=0;orthogonalLoop=1;jettySize=auto;html=1;exitX=0.5;exitY=1;exitDx=0;exitDy=0;entryX=0.5;entryY=0;entryDx=0;entryDy=0;fontSize=12;startSize=8;endSize=8;" edge="1" parent="1" source="lol_D_DTWbLAdcMGgxtA-2" target="lol_D_DTWbLAdcMGgxtA-9">
          <mxGeometry relative="1" as="geometry" />
        </mxCell>
        <mxCell id="lol_D_DTWbLAdcMGgxtA-2" value="车辆信息管理" style="rounded=1;whiteSpace=wrap;html=1;" vertex="1" parent="1">
          <mxGeometry x="90" y="220" width="120" height="60" as="geometry" />
        </mxCell>
        <mxCell id="lol_D_DTWbLAdcMGgxtA-3" value="车辆录入、查询" style="rounded=1;whiteSpace=wrap;html=1;" vertex="1" parent="1">
          <mxGeometry x="20" y="370" width="120" height="60" as="geometry" />
        </mxCell>
        <mxCell id="lol_D_DTWbLAdcMGgxtA-21" style="edgeStyle=none;curved=1;rounded=0;orthogonalLoop=1;jettySize=auto;html=1;exitX=0.5;exitY=1;exitDx=0;exitDy=0;entryX=0.5;entryY=0;entryDx=0;entryDy=0;fontSize=12;startSize=8;endSize=8;" edge="1" parent="1" source="lol_D_DTWbLAdcMGgxtA-4" target="lol_D_DTWbLAdcMGgxtA-6">
          <mxGeometry relative="1" as="geometry" />
        </mxCell>
        <mxCell id="lol_D_DTWbLAdcMGgxtA-22" style="edgeStyle=none;curved=1;rounded=0;orthogonalLoop=1;jettySize=auto;html=1;exitX=0.5;exitY=1;exitDx=0;exitDy=0;entryX=0.5;entryY=0;entryDx=0;entryDy=0;fontSize=12;startSize=8;endSize=8;" edge="1" parent="1" source="lol_D_DTWbLAdcMGgxtA-4" target="lol_D_DTWbLAdcMGgxtA-10">
          <mxGeometry relative="1" as="geometry" />
        </mxCell>
        <mxCell id="lol_D_DTWbLAdcMGgxtA-4" value="客户信息管理" style="rounded=1;whiteSpace=wrap;html=1;" vertex="1" parent="1">
          <mxGeometry x="630" y="220" width="120" height="60" as="geometry" />
        </mxCell>
        <mxCell id="lol_D_DTWbLAdcMGgxtA-19" style="edgeStyle=none;curved=1;rounded=0;orthogonalLoop=1;jettySize=auto;html=1;exitX=0.5;exitY=1;exitDx=0;exitDy=0;entryX=0.5;entryY=0;entryDx=0;entryDy=0;fontSize=12;startSize=8;endSize=8;" edge="1" parent="1" source="lol_D_DTWbLAdcMGgxtA-5" target="lol_D_DTWbLAdcMGgxtA-8">
          <mxGeometry relative="1" as="geometry" />
        </mxCell>
        <mxCell id="lol_D_DTWbLAdcMGgxtA-20" style="edgeStyle=none;curved=1;rounded=0;orthogonalLoop=1;jettySize=auto;html=1;exitX=0.5;exitY=1;exitDx=0;exitDy=0;entryX=0.5;entryY=0;entryDx=0;entryDy=0;fontSize=12;startSize=8;endSize=8;" edge="1" parent="1" source="lol_D_DTWbLAdcMGgxtA-5" target="lol_D_DTWbLAdcMGgxtA-7">
          <mxGeometry relative="1" as="geometry" />
        </mxCell>
        <mxCell id="lol_D_DTWbLAdcMGgxtA-5" value="租聘信息管理" style="rounded=1;whiteSpace=wrap;html=1;" vertex="1" parent="1">
          <mxGeometry x="352" y="220" width="120" height="60" as="geometry" />
        </mxCell>
        <mxCell id="lol_D_DTWbLAdcMGgxtA-6" value="客户信息录入" style="rounded=1;whiteSpace=wrap;html=1;" vertex="1" parent="1">
          <mxGeometry x="570" y="370" width="120" height="60" as="geometry" />
        </mxCell>
        <mxCell id="lol_D_DTWbLAdcMGgxtA-7" value="租赁记录查询" style="rounded=1;whiteSpace=wrap;html=1;" vertex="1" parent="1">
          <mxGeometry x="430" y="370" width="120" height="60" as="geometry" />
        </mxCell>
        <mxCell id="lol_D_DTWbLAdcMGgxtA-8" value="租赁记录录入" style="rounded=1;whiteSpace=wrap;html=1;" vertex="1" parent="1">
          <mxGeometry x="293.5" y="370" width="120" height="60" as="geometry" />
        </mxCell>
        <mxCell id="lol_D_DTWbLAdcMGgxtA-9" value="车辆修改、删除" style="rounded=1;whiteSpace=wrap;html=1;" vertex="1" parent="1">
          <mxGeometry x="150" y="370" width="120" height="60" as="geometry" />
        </mxCell>
        <mxCell id="lol_D_DTWbLAdcMGgxtA-10" value="客户修改、查询" style="rounded=1;whiteSpace=wrap;html=1;" vertex="1" parent="1">
          <mxGeometry x="707" y="370" width="120" height="60" as="geometry" />
        </mxCell>
      </root>
    </mxGraphModel>
  </diagram>
</mxfile>
